<svg width="546" height="286" viewBox="0 0 546 286" fill="none" xmlns="http://www.w3.org/2000/svg">
<g clip-path="url(#clip0)">
<path d="M187.204 13.9969C204.011 21.5575 223.544 32.004 241.435 58.3169C247.607 67.4221 255.76 83.7491 258.378 94.6156C262.433 111.417 265.648 125.156 264.889 141.713C264.373 152.675 266.476 180.803 244.677 198.241C235.386 205.666 229.417 207.834 217.752 214.622C208.826 219.812 199.304 230.258 195.425 237.399C188.52 250.108 186.092 260.026 174.115 268.007C159.044 278.061 142.862 281.19 121.308 280.201C101.68 279.28 81.7401 267.424 58.4091 250.582C20.7539 223.402 8.61363 194.922 5.12755 182.7C1.07175 168.514 -0.488174 157.268 0.162924 143.583C1.09888 122.92 11.7335 98.0843 22.7615 79.2642C36.5702 55.6883 54.299 26.4217 84.7921 9.64758C100.269 1.12502 112.301 -0.758337 133.516 0.244316C152.615 1.12503 169.882 6.20604 187.204 13.9969Z" fill="white"/>
<path d="M254.01 284.523C250.605 285.417 247.96 285.932 243.267 286C225.823 286.285 218.932 277.139 215.514 271.421C213.777 268.467 211.688 263.982 211.458 259.958C211.146 254.606 211.607 246.179 221.848 236.829C224.643 234.269 230.95 230.515 239.143 229.039C248.041 227.44 256.072 231.179 259.354 234.052C264.143 238.225 269.894 247.615 269.785 260.934C269.731 269.605 265.892 281.393 254.01 284.523Z" fill="white"/>
<path d="M344.526 186.52C345.814 188.715 346.452 191.046 346.452 193.552C346.452 194.392 346.126 195.124 345.489 195.774C344.851 196.411 344.105 196.736 343.278 196.736C342.383 196.736 341.609 196.398 340.958 195.734C340.307 195.056 339.995 194.297 339.995 193.457C339.995 191.669 339.303 190.029 337.96 188.539C337.323 187.902 336.631 187.414 335.885 187.035C335.153 186.696 334.257 186.507 333.24 186.507H325.237C323.365 186.507 321.71 186.222 320.272 185.639C318.821 185.057 317.424 184.108 316.067 182.753C314.724 181.398 313.775 180.003 313.232 178.553C312.676 177.117 312.418 175.437 312.418 173.499V129.206C312.418 127.675 312.758 126.185 313.422 124.776C314.1 123.366 314.969 122.093 316.04 120.968C317.098 119.844 318.278 118.963 319.608 118.326C320.923 117.689 322.266 117.351 323.609 117.351H345.611C346.967 117.351 348.297 117.689 349.599 118.326C350.928 118.963 352.108 119.844 353.166 120.968C354.224 122.093 355.093 123.366 355.784 124.776C356.449 126.185 356.788 127.675 356.788 129.206V173.526C356.788 175.45 356.517 177.13 355.961 178.58C355.432 180.03 354.469 181.426 353.126 182.78C351.837 184.054 350.521 184.989 349.178 185.572C347.822 186.141 346.262 186.466 344.526 186.52ZM350.426 130.182C350.426 128.312 349.748 126.781 348.432 125.548C347.103 124.329 345.529 123.719 343.658 123.719H325.535C323.677 123.719 322.076 124.342 320.761 125.548C319.445 126.767 318.78 128.312 318.78 130.182V173.608C318.78 175.477 319.431 177.036 320.761 178.282C322.076 179.529 323.663 180.165 325.535 180.165H343.658C345.529 180.165 347.117 179.556 348.432 178.336C349.748 177.103 350.426 175.572 350.426 173.702V130.182Z" fill="white"/>
<path d="M395.65 180.165C396.546 180.165 397.495 180.003 398.485 179.691C399.475 179.366 400.384 178.919 401.185 178.336C401.998 177.754 402.677 177.09 403.219 176.304C403.762 175.545 404.033 174.705 404.033 173.811V142.01C404.033 141.116 404.332 140.357 404.901 139.748C405.498 139.138 406.217 138.826 407.126 138.826C408.035 138.826 408.794 139.138 409.445 139.788C410.069 140.439 410.395 141.211 410.395 142.105V182.753C410.395 183.647 410.056 184.42 409.378 185.057C408.699 185.707 407.913 186.019 407.004 186.019C406.176 186.019 405.471 185.68 404.888 185.016C404.318 184.339 404.02 183.647 404.02 182.943V182.469C403.64 182.848 403.124 183.295 402.527 183.769C401.904 184.257 401.225 184.691 400.452 185.07C399.679 185.45 398.838 185.802 397.943 186.073C397.047 186.371 396.139 186.506 395.243 186.506H382.52C380.716 186.506 379.02 186.168 377.406 185.504C375.792 184.84 374.395 183.878 373.215 182.672C372.007 181.452 371.085 180.003 370.42 178.336C369.742 176.67 369.403 174.813 369.403 172.754V142.01C369.403 141.116 369.701 140.357 370.271 139.748C370.854 139.138 371.587 138.826 372.482 138.826C373.391 138.826 374.164 139.138 374.802 139.788C375.439 140.439 375.765 141.211 375.765 142.105L375.86 173.607C375.86 175.477 376.524 177.035 377.84 178.282C379.142 179.528 380.756 180.165 382.601 180.165H395.65V180.165Z" fill="white"/>
<path d="M422.848 172.51C422.848 170.898 423.078 169.299 423.567 167.714C424.068 166.115 424.787 164.678 425.791 163.405C426.795 162.131 428.029 161.088 429.549 160.288C431.068 159.489 432.885 159.083 435.015 159.083H457.18V151.712C457.18 149.91 456.556 148.379 455.308 147.146C454.046 145.913 452.527 145.316 450.723 145.316H432.099C431.203 145.316 430.43 145.005 429.779 144.409C429.128 143.812 428.816 143.067 428.816 142.187C428.816 141.292 429.128 140.547 429.779 139.897C430.43 139.273 431.203 138.948 432.099 138.948H450.723C452.527 138.948 454.209 139.26 455.782 139.91C457.369 140.547 458.726 141.455 459.879 142.607C461.045 143.772 461.941 145.127 462.592 146.698C463.243 148.27 463.555 149.95 463.555 151.752V182.794C463.555 183.702 463.216 184.461 462.551 185.097C461.859 185.748 461.086 186.059 460.177 186.059C459.336 186.059 458.631 185.721 458.061 185.057C457.478 184.379 457.193 183.688 457.193 182.984V182.509C456.813 182.889 456.325 183.336 455.701 183.81C455.077 184.298 454.399 184.732 453.626 185.111C452.839 185.49 452.011 185.843 451.103 186.114C450.207 186.412 449.312 186.547 448.403 186.547H435.68C433.876 186.547 432.194 186.208 430.607 185.504C429.033 184.786 427.677 183.824 426.51 182.564C425.357 181.317 424.448 179.854 423.811 178.147C423.16 176.439 422.848 174.556 422.848 172.51ZM448.769 180.165C449.678 180.165 450.628 180.003 451.618 179.691C452.622 179.366 453.517 178.919 454.331 178.336C455.131 177.754 455.809 177.09 456.352 176.304C456.895 175.545 457.166 174.705 457.166 173.811V165.424H434.784C433.496 165.424 432.492 165.722 431.76 166.291C431.013 166.873 430.444 167.537 430.064 168.31C429.671 169.082 429.44 169.854 429.332 170.627C429.237 171.385 429.196 171.968 429.196 172.361C429.196 172.673 429.264 173.255 429.44 174.095C429.603 174.935 429.955 175.803 430.498 176.697C431.054 177.591 431.854 178.404 432.913 179.109C433.971 179.827 435.436 180.165 437.294 180.165H448.769V180.165Z" fill="white"/>
<path d="M492.759 186.046C490.955 186.046 489.286 185.708 487.753 185.044C486.207 184.366 484.864 183.458 483.684 182.307C482.545 181.155 481.622 179.786 480.944 178.201C480.266 176.629 479.927 174.909 479.927 173.052V121.213C479.927 120.318 480.239 119.56 480.849 118.896C481.46 118.259 482.219 117.934 483.128 117.934C484.023 117.934 484.769 118.259 485.393 118.896C486.004 119.546 486.302 120.305 486.302 121.213V173.134C486.302 175.004 486.953 176.562 488.269 177.822C489.585 179.068 491.185 179.705 493.03 179.705C493.939 179.705 494.699 179.99 495.309 180.545C495.919 181.128 496.231 181.846 496.231 182.727C496.231 183.607 495.879 184.38 495.214 185.057C494.536 185.708 493.722 186.046 492.759 186.046Z" fill="white"/>
<path d="M546 162.361C546 163.255 545.702 164.014 545.132 164.624C544.549 165.234 543.776 165.532 542.826 165.532H511.763V173.201C511.763 175.003 512.387 176.534 513.635 177.807C514.883 179.068 516.416 179.704 518.206 179.704H538.757C539.652 179.704 540.425 180.002 541.076 180.599C541.7 181.208 542.026 181.94 542.026 182.834C542.026 183.715 541.7 184.474 541.076 185.111C540.425 185.747 539.652 186.059 538.757 186.059H518.206C516.416 186.059 514.72 185.747 513.147 185.097C511.573 184.46 510.217 183.566 509.05 182.401C507.897 181.263 507.002 179.881 506.351 178.322C505.713 176.751 505.401 175.03 505.401 173.174V150.289C505.401 148.758 505.727 147.281 506.405 145.872C507.07 144.476 507.938 143.189 508.996 142.078C510.054 140.967 511.248 140.072 512.55 139.436C513.879 138.799 515.209 138.474 516.551 138.474H533.67C535.216 138.474 536.736 138.799 538.187 139.476C539.679 140.154 540.995 141.021 542.148 142.118C543.287 143.202 544.21 144.476 544.929 145.966C545.634 147.43 546 148.934 546 150.478V162.361V162.361ZM511.763 159.177H539.625V150.438C539.625 149.801 539.448 149.137 539.109 148.446C538.743 147.768 538.282 147.159 537.753 146.603C537.21 146.061 536.573 145.614 535.854 145.303C535.148 144.977 534.443 144.815 533.738 144.815H517.623C516.918 144.815 516.212 144.991 515.493 145.303C514.802 145.614 514.164 146.061 513.621 146.603C513.079 147.159 512.631 147.768 512.279 148.446C511.912 149.137 511.75 149.801 511.75 150.438V159.177H511.763Z" fill="white"/>
</g>
<defs>
<clipPath id="clip0">
<rect width="546" height="286" fill="white"/>
</clipPath>
</defs>
</svg>
